<?xml version="1.0" encoding="UTF-8" standalone="no"?>
<svg
   version="1.1"
   id="Layer_1"
   x="0px"
   y="0px"
   width="100%"
   viewBox="0 0 448 416"
   enable-background="new 0 0 448 416"
   xml:space="preserve"
   sodipodi:docname="logo.svg"
   inkscape:version="1.4.3 (0d15f75042, 2025-12-25)"
   xmlns:inkscape="http://www.inkscape.org/namespaces/inkscape"
   xmlns:sodipodi="http://sodipodi.sourceforge.net/DTD/sodipodi-0.dtd"
   xmlns="http://www.w3.org/2000/svg"
   xmlns:svg="http://www.w3.org/2000/svg"><defs
   id="defs1" /><sodipodi:namedview
   id="namedview1"
   pagecolor="#ffffff"
   bordercolor="#000000"
   borderopacity="0.25"
   inkscape:showpageshadow="2"
   inkscape:pageopacity="0.0"
   inkscape:pagecheckerboard="0"
   inkscape:deskcolor="#d1d1d1"
   inkscape:zoom="1.3479223"
   inkscape:cx="127.60379"
   inkscape:cy="219.96817"
   inkscape:window-width="1864"
   inkscape:window-height="1011"
   inkscape:window-x="0"
   inkscape:window-y="0"
   inkscape:window-maximized="1"
   inkscape:current-layer="Layer_1" />
<path
   fill="#000000"
   opacity="1"
   stroke="none"
   d="m 240.49113,301.58628 c -4.13255,-17.34814 -7.54002,-34.49188 -16.35265,-50.14602 -17.67912,39.07455 -21.27412,80.95727 -25.15339,122.8677 -2.21214,-2.65515 -2.06403,-5.75842 -2.39406,-8.74392 -3.64861,-33.00461 -11.1349,-64.92069 -27.04175,-94.40412 -18.00513,-33.37262 -45.09434,-54.54754 -82.794263,-61.39503 -2.250748,-0.40883 -4.475724,-0.95955 -7.77871,-1.6752 3.898522,-2.04821 7.230782,-2.06034 10.340317,-2.64832 36.083716,-6.82321 61.592976,-27.83289 79.337076,-59.1579 13.98025,-24.68037 20.91543,-51.685995 25.85486,-79.35161 1.34799,-7.550102 1.96193,-15.16449 2.94548,-22.745033 0.12268,-0.945603 -0.0457,-1.996224 1.85099,-3.118203 3.64039,42.158931 7.03942,83.974366 24.28464,123.817346 3.78931,-4.29436 5.19519,-8.66562 6.70534,-12.95787 5.70438,-16.21363 9.39305,-32.90923 12.2249,-49.84491 3.10495,-18.569105 4.98569,-37.24624 5.98279,-56.029359 0.0687,-1.29393 -0.26349,-2.69944 1.50711,-4.349808 1.82025,3.983933 1.48529,8.085556 2.02301,11.877487 4.60595,32.480815 11.76245,64.20198 28.12866,93.07762 18.75818,33.09585 46.17041,54.14123 84.50262,59.60655 1.4231,0.20291 3.03397,0.0528 4.35959,1.87636 -5.80682,1.34831 -11.40158,2.58006 -16.96234,3.94977 -30.10113,7.41438 -52.34268,25.41589 -68.48877,51.36374 -16.57373,26.63516 -24.58594,56.24026 -29.49515,86.87185 -1.15649,7.21598 -2.68545,14.3786 -2.97283,21.71298 -0.0395,1.00687 -0.24073,1.92777 -2.29352,2.891 -1.39109,-24.82727 -3.85285,-48.99796 -8.31995,-73.3451 M 246.87306,198.822 c -9.80083,-7.28836 -16.05547,-17.49988 -22.58223,-28.51309 -9.25931,16.52843 -19.94679,30.49557 -37.87645,37.66569 17.91125,6.96123 28.48244,20.83074 37.77952,37.38497 9.5763,-16.50192 20.1754,-30.81328 39.08718,-37.00902 -5.74115,-3.46495 -11.36325,-5.30336 -16.40802,-9.52855 z"
   id="path1"
   style="fill:#ffffff;fill-opacity:1" />
</svg>
