<?xml version="1.0" encoding="UTF-8" standalone="no"?>
<!-- Created with Inkscape (http://www.inkscape.org/) -->

<svg
   width="1200"
   height="400"
   viewBox="0 0 317.5 105.83334"
   version="1.1"
   id="svg1"
   xml:space="preserve"
   inkscape:version="1.4.2 (f4327f4, 2025-05-13)"
   sodipodi:docname="banner.svg"
   xmlns:inkscape="http://www.inkscape.org/namespaces/inkscape"
   xmlns:sodipodi="http://sodipodi.sourceforge.net/DTD/sodipodi-0.dtd"
   xmlns:xlink="http://www.w3.org/1999/xlink"
   xmlns="http://www.w3.org/2000/svg"
   xmlns:svg="http://www.w3.org/2000/svg"><sodipodi:namedview
     id="namedview1"
     pagecolor="#505050"
     bordercolor="#ffffff"
     borderopacity="1"
     inkscape:showpageshadow="0"
     inkscape:pageopacity="0"
     inkscape:pagecheckerboard="1"
     inkscape:deskcolor="#505050"
     inkscape:document-units="mm"
     inkscape:zoom="0.71891835"
     inkscape:cx="561.95533"
     inkscape:cy="189.86857"
     inkscape:window-width="1920"
     inkscape:window-height="1009"
     inkscape:window-x="-8"
     inkscape:window-y="-8"
     inkscape:window-maximized="1"
     inkscape:current-layer="svg1"
     showgrid="true"><inkscape:grid
       id="grid7"
       units="mm"
       originx="0"
       originy="0"
       spacingx="0.99999999"
       spacingy="1.0000001"
       empcolor="#0099e5"
       empopacity="0.30196078"
       color="#0099e5"
       opacity="0.14901961"
       empspacing="5"
       enabled="true"
       visible="true" /></sodipodi:namedview><defs
     id="defs1"><rect
       x="518.83502"
       y="372.78226"
       width="653.75995"
       height="76.503822"
       id="rect7" /><rect
       x="528.57184"
       y="342.18073"
       width="446.50412"
       height="136.3159"
       id="rect6" /><rect
       x="556.39142"
       y="333.83484"
       width="427.0304"
       height="48.68425"
       id="rect5" /><linearGradient
       id="linearGradient4"
       inkscape:collect="always"><stop
         style="stop-color:#0f172a;stop-opacity:1;"
         offset="0.53864735"
         id="stop4" /><stop
         style="stop-color:#000000;stop-opacity:1;"
         offset="1"
         id="stop5" /></linearGradient><rect
       x="531.35382"
       y="101.54143"
       width="467.3688"
       height="214.21069"
       id="rect2" /><linearGradient
       inkscape:collect="always"
       xlink:href="#linearGradient4"
       id="linearGradient5"
       x1="-9.9368029"
       y1="64.589218"
       x2="308.77695"
       y2="64.589218"
       gradientUnits="userSpaceOnUse"
       gradientTransform="matrix(0.99324055,0,0,0.68824937,10.237666,8.7268062)" /></defs><rect
     style="fill:url(#linearGradient5);stroke-width:0.218757"
     id="rect1"
     width="316.55969"
     height="105.62453"
     x="0.36802986"
     y="0.36803073" /><text
     xml:space="preserve"
     transform="matrix(0.71876226,0,0,0.71876226,-242.71452,-40.319184)"
     id="text1"
     style="font-size:42.6667px;font-family:Serif;-inkscape-font-specification:Serif;text-align:start;writing-mode:lr-tb;direction:ltr;white-space:pre;shape-inside:url(#rect2);display:inline;fill:#ffffff;fill-opacity:1"><tspan
       x="531.35352"
       y="139.41287"
       id="tspan4">ASTRA<tspan
   style="fill:#9333ea"
   id="tspan1">Ï</tspan>S</tspan></text><path
     fill="#000000"
     opacity="1"
     stroke="none"
     d="m 74.356755,78.95236 c -1.139449,-4.783343 -2.078978,-9.510326 -4.508847,-13.826588 -4.87461,10.773885 -5.86584,22.322063 -6.935456,33.877885 -0.60995,-0.732091 -0.56911,-1.587754 -0.660107,-2.41093 C 61.246328,87.492482 59.182158,78.692359 54.796217,70.563006 49.83173,61.361292 42.362518,55.522807 31.967648,53.634773 c -0.620591,-0.112724 -1.234076,-0.264572 -2.144794,-0.461896 1.074931,-0.564743 1.993722,-0.568089 2.851101,-0.730211 9.949235,-1.881339 16.982812,-7.674261 21.875327,-16.311393 3.854728,-6.805031 5.766937,-14.251194 7.128868,-21.879329 0.371681,-2.081762 0.540951,-4.181255 0.812141,-6.271413 0.03387,-0.2607255 -0.01261,-0.5504056 0.510376,-0.8597674 1.003744,11.6243334 1.940951,23.1539494 6.695915,34.1397074 1.044814,-1.184068 1.43245,-2.38934 1.848837,-3.572827 1.572845,-4.470523 2.589908,-9.073943 3.370723,-13.743555 0.856119,-5.119993 1.374686,-10.269771 1.649617,-15.4487745 0.01897,-0.3567655 -0.07263,-0.7443038 0.415554,-1.1993522 0.501882,1.0984698 0.40953,2.2293999 0.557792,3.2749347 1.269984,8.955819 3.24322,17.702181 7.755819,25.663954 5.172124,9.125401 12.730399,14.928168 23.299666,16.435099 0.39238,0.05595 0.83654,0.01456 1.20206,0.517362 -1.60111,0.371765 -3.14373,0.711391 -4.67699,1.089055 -8.29972,2.04434 -14.432309,7.007832 -18.884206,14.162338 -4.569822,7.344016 -6.778992,15.506932 -8.132596,23.952873 -0.318876,1.989643 -0.740444,3.964564 -0.819686,5.986838 -0.01084,0.277625 -0.06638,0.531552 -0.632386,0.797133 C 76.267224,92.330011 75.588452,85.665507 74.356755,78.95236 m 1.759664,-28.334829 c -2.70234,-2.009593 -4.426906,-4.825177 -6.226515,-7.861812 -2.553036,4.557324 -5.499858,8.408435 -10.443528,10.385427 4.938596,1.919394 7.853351,5.743582 10.416809,10.308021 2.640439,-4.550016 5.562885,-8.496034 10.77736,-10.204363 -1.582984,-0.955378 -3.133142,-1.462276 -4.524126,-2.627273 z"
     id="path1"
     style="fill:#9333ea;fill-opacity:1;stroke-width:0.275726"
     inkscape:highlight-color="#ffffff" /><g
     inkscape:label="Capa 1"
     inkscape:groupmode="layer"
     id="layer1" /><text
     xml:space="preserve"
     transform="matrix(0.25024146,0,0,0.25024146,12.165339,-30.125297)"
     id="text6"
     style="font-size:42.6667px;font-family:Serif;-inkscape-font-specification:Serif;text-align:start;writing-mode:lr-tb;direction:ltr;white-space:pre;shape-inside:url(#rect7);display:inline;fill:#9333ea;fill-opacity:1"><tspan
       x="518.83594"
       y="410.65505"
       id="tspan5">Olga, Samuel, Manuel, Elías</tspan></text></svg>
