<?xml version="1.0" encoding="UTF-8" standalone="no"?>
<!-- Created with Inkscape (http://www.inkscape.org/) -->

<svg
   width="48"
   height="48"
   viewBox="0 0 12.7 12.7"
   version="1.1"
   id="svg1"
   xml:space="preserve"
   inkscape:version="1.4.3 (0d15f75042, 2025-12-25)"
   sodipodi:docname="logo_new.svg"
   xmlns:inkscape="http://www.inkscape.org/namespaces/inkscape"
   xmlns:sodipodi="http://sodipodi.sourceforge.net/DTD/sodipodi-0.dtd"
   xmlns="http://www.w3.org/2000/svg"
   xmlns:svg="http://www.w3.org/2000/svg"><sodipodi:namedview
     id="namedview1"
     pagecolor="#ffffff"
     bordercolor="#000000"
     borderopacity="0.34509804"
     inkscape:showpageshadow="true"
     inkscape:pageopacity="0.0"
     inkscape:pagecheckerboard="true"
     inkscape:deskcolor="#d1d1d1"
     inkscape:document-units="px"
     borderlayer="true"
     inkscape:clip-to-page="false"
     inkscape:zoom="11.303143"
     inkscape:cx="16.632542"
     inkscape:cy="25.523874"
     inkscape:window-width="1864"
     inkscape:window-height="1011"
     inkscape:window-x="0"
     inkscape:window-y="0"
     inkscape:window-maximized="1"
     inkscape:current-layer="svg1" /><defs
     id="defs1" /><g
     inkscape:label="Layer 1"
     inkscape:groupmode="layer"
     id="layer1" /><path
     fill="#000000"
     opacity="1"
     stroke="none"
     d="M 7.0720789,9.9099764 C 6.8911307,9.2500607 6.7419323,8.5979205 6.3560626,8.0024439 5.5819659,9.4888227 5.4245552,11.082023 5.254698,12.676277 5.157837,12.575277 5.164323,12.457229 5.1498718,12.343663 4.9901137,11.088181 4.6623193,9.874108 3.9658233,8.7525712 3.1774514,7.4830912 1.9913249,6.6776066 0.34059812,6.417131 0.2420478,6.4015827 0.14462375,6.3806299 0,6.3534061 0.17068965,6.275493 0.31660633,6.2750326 0.45276028,6.2526662 2.0327201,5.9931144 3.1496668,5.1939156 3.9266094,4.002326 4.5387479,3.0634954 4.8424109,2.0362133 5.058689,0.98382581 5.1177102,0.69662298 5.1445944,0.40697496 5.1876589,0.11861459 5.1930288,0.08264367 5.1856406,0.04267915 5.2687061,0 5.4281047,1.6037071 5.5769338,3.1943477 6.332032,4.7099575 6.4979519,4.546602 6.5595082,4.3803212 6.6256319,4.217046 6.8754036,3.6002866 7.0369158,2.9651933 7.1609106,2.3209674 7.2968641,1.6146069 7.3792134,0.90413704 7.4228731,0.18963555 c 0.00303,-0.0492199 -0.011525,-0.10268544 0.065989,-0.16546412 0.0797,0.15154681 0.065035,0.30757117 0.088581,0.45181452 C 7.7791192,1.7115417 8.092474,2.9182007 8.8090837,4.0166175 9.6304282,5.275569 10.830699,6.0761261 12.50911,6.2840241 c 0.06232,0.00772 0.132847,0.00202 0.19089,0.071377 -0.254258,0.051289 -0.49923,0.098144 -0.742713,0.1502477 C 10.639281,6.7876882 9.6654133,7.4724578 8.958442,8.459503 8.2327455,9.4726924 7.8819231,10.598858 7.6669686,11.764069 7.6163305,12.038562 7.5493841,12.311025 7.5368,12.590022 7.5350507,12.628317 7.5262592,12.663353 7.4363763,12.7 7.3754682,11.755575 7.2676755,10.836132 7.0720799,9.9099779 M 7.3515184,6.0008697 C 6.92238,5.7236249 6.6485147,5.335183 6.3627342,4.9162453 5.9573064,5.5449793 5.4893455,6.0762833 4.704278,6.3490314 5.4885395,6.6138334 5.9514087,7.1414236 6.3584899,7.7711392 6.7777977,7.1434133 7.2418892,6.5990158 8.0699592,6.3633323 7.8185775,6.231527 7.5724089,6.1615952 7.3515184,6.0008697 Z"
     id="path1"
     style="fill:#ffffff;fill-opacity:1;stroke-width:0.0408114" /></svg>
