<?xml version="1.0" encoding="UTF-8" standalone="no"?>
<svg
   viewBox="0 0 100 100"
   width="100%"
   height="100%"
   version="1.1"
   id="svg8"
   sodipodi:docname="avatar_primavera_2.svg"
   inkscape:export-filename="avatar_primavera_2.png"
   inkscape:export-xdpi="96"
   inkscape:export-ydpi="96"
   inkscape:version="1.4.3 (0d15f75042, 2025-12-25)"
   xmlns:inkscape="http://www.inkscape.org/namespaces/inkscape"
   xmlns:sodipodi="http://sodipodi.sourceforge.net/DTD/sodipodi-0.dtd"
   xmlns="http://www.w3.org/2000/svg"
   xmlns:svg="http://www.w3.org/2000/svg">
  <sodipodi:namedview
     id="namedview8"
     pagecolor="#ffffff"
     bordercolor="#000000"
     borderopacity="0.25"
     inkscape:showpageshadow="2"
     inkscape:pageopacity="0.0"
     inkscape:pagecheckerboard="0"
     inkscape:deskcolor="#d1d1d1"
     inkscape:zoom="7.93"
     inkscape:cx="49.936948"
     inkscape:cy="50"
     inkscape:window-width="1864"
     inkscape:window-height="1011"
     inkscape:window-x="0"
     inkscape:window-y="0"
     inkscape:window-maximized="1"
     inkscape:current-layer="svg8" />
  <defs
     id="defs1">
    <!-- Máscara de recorte para no salirnos de la silueta base del cuerpo -->
    <clipPath
       id="cuerpoClip">
      <path
         d="M 15 100 A 35 35 0 0 1 85 100 Z"
         id="path1" />
    </clipPath>
  </defs>
  <!-- FONDO SÓLIDO (Opcional, usando el background del tema Primavera) -->
  <rect
     width="100"
     height="100"
     fill="#1A0F14"
     id="rect1" />
  <!-- CUERNOS / RAMITAS (Dibujados por detrás de la cabeza) -->
  <!-- Rama izquierda -->
  <path
     d="M 28 35 Q 18 20 15 10 M 22 25 L 13 24 M 25 18 L 18 12"
     fill="none"
     stroke="#795548"
     stroke-width="2"
     stroke-linecap="round"
     id="path2" />
  <!-- Rama derecha -->
  <path
     d="M 72 35 Q 82 20 85 10 M 78 25 L 87 24 M 75 18 L 82 12"
     fill="none"
     stroke="#795548"
     stroke-width="2"
     stroke-linecap="round"
     id="path3" />
  <!-- CUERPO Y CAPA DE HOJAS -->
  <g
     clip-path="url(#cuerpoClip)"
     id="g8">
    <!-- Color base del cuerpo (Marrón oscuro) -->
    <path
       d="M 15 100 A 35 35 0 0 1 85 100 Z"
       fill="#4E342E"
       id="path4" />
    <!-- Hoja central trasera (Verde oscuro) -->
    <path
       d="M 50 55 Q 25 80 50 110 Q 75 80 50 55"
       fill="#2E7D32"
       id="path5" />
    <!-- Hoja lateral izquierda (Verde medio) -->
    <path
       d="M 35 60 Q 5 80 20 110 Q 45 95 35 60"
       fill="#388E3C"
       id="path6" />
    <!-- Hoja lateral derecha (Verde medio) -->
    <path
       d="M 65 60 Q 95 80 80 110 Q 55 95 65 60"
       fill="#388E3C"
       id="path7" />
    <!-- Hoja superior frontal (Verde claro/oliva) -->
    <path
       d="M 50 65 Q 35 85 50 105 Q 65 85 50 65"
       fill="#4CAF50"
       id="path8" />
  </g>
  <!-- CABEZA (Círculo base en Rosa cerezo) -->
  <circle
     cx="50"
     cy="40"
     r="25"
     fill="#F48FB1"
     id="circle8" />
</svg>
