<svg version="1.1" id="Layer_1" xmlns="http://www.w3.org/2000/svg" xmlns:xlink="http://www.w3.org/1999/xlink" x="0px" y="0px"
	 width="100%" viewBox="0 0 448 416" enable-background="new 0 0 448 416" xml:space="preserve">
<path fill="#ffffff" opacity="1.000000" stroke="none" 
	d="
M255.679779,330.246094 
	C251.547226,312.897949 248.139755,295.754211 239.327133,280.100067 
	C221.648010,319.174622 218.053009,361.057343 214.173737,402.967773 
	C211.961594,400.312622 212.109711,397.209351 211.779678,394.223846 
	C208.131073,361.219238 200.644775,329.303162 184.737930,299.819733 
	C166.732803,266.447113 139.643585,245.272186 101.943665,238.424698 
	C99.692917,238.015869 97.467941,237.465149 94.164955,236.749496 
	C98.063477,234.701294 101.395737,234.689163 104.505272,234.101181 
	C140.588989,227.277969 166.098251,206.268295 183.842346,174.943283 
	C197.822601,150.262909 204.757782,123.257286 209.697205,95.591675 
	C211.045197,88.041573 211.659134,80.427185 212.642685,72.846642 
	C212.765366,71.901039 212.596939,70.850418 214.493683,69.728439 
	C218.134064,111.887367 221.533096,153.702805 238.778320,193.545776 
	C242.567627,189.251419 243.973511,184.880157 245.483658,180.587906 
	C251.188034,164.374283 254.876709,147.678680 257.708557,130.742996 
	C260.813507,112.173904 262.694244,93.496765 263.691345,74.713646 
	C263.760040,73.419716 263.427856,72.014206 265.198456,70.363838 
	C267.018707,74.347771 266.683746,78.449394 267.221466,82.241325 
	C271.827423,114.722137 278.983917,146.443298 295.350128,175.318939 
	C314.108307,208.414795 341.520538,229.460175 379.852753,234.925491 
	C381.275848,235.128403 382.886719,234.978317 384.212341,236.801849 
	C378.405518,238.150162 372.810760,239.381912 367.250000,240.751617 
	C337.148865,248.166000 314.907318,266.167511 298.761230,292.115356 
	C282.187500,318.750519 274.175293,348.355621 269.266083,378.987213 
	C268.109589,386.203186 266.580627,393.365814 266.293243,400.700195 
	C266.253784,401.707062 266.052521,402.627960 263.999725,403.591187 
	C262.608643,378.763916 260.146881,354.593231 255.679779,330.246094 
M262.061707,227.481812 
	C252.260880,220.193451 246.006241,209.981934 239.479477,198.968719 
	C230.220169,215.497147 219.532684,229.464294 201.603027,236.634415 
	C219.514282,243.595642 230.085464,257.465149 239.382553,274.019379 
	C248.958847,257.517456 259.557953,243.206100 278.469727,237.010361 
	C272.728577,233.545410 267.106476,231.707001 262.061707,227.481812 
z"/>
</svg>