<?xml version="1.0" encoding="UTF-8" standalone="no"?>
<!-- Created with Inkscape (http://www.inkscape.org/) -->

<svg
   width="1122.5197"
   height="500"
   viewBox="0 0 296.99999 132.29168"
   version="1.1"
   id="svg1"
   xml:space="preserve"
   inkscape:version="1.4.2 (f4327f4, 2025-05-13)"
   sodipodi:docname="banner.svg"
   xmlns:inkscape="http://www.inkscape.org/namespaces/inkscape"
   xmlns:sodipodi="http://sodipodi.sourceforge.net/DTD/sodipodi-0.dtd"
   xmlns:xlink="http://www.w3.org/1999/xlink"
   xmlns="http://www.w3.org/2000/svg"
   xmlns:svg="http://www.w3.org/2000/svg"><sodipodi:namedview
     id="namedview1"
     pagecolor="#505050"
     bordercolor="#ffffff"
     borderopacity="1"
     inkscape:showpageshadow="0"
     inkscape:pageopacity="0"
     inkscape:pagecheckerboard="1"
     inkscape:deskcolor="#505050"
     inkscape:document-units="mm"
     inkscape:zoom="1.4378367"
     inkscape:cx="320.62055"
     inkscape:cy="310.53596"
     inkscape:window-width="1920"
     inkscape:window-height="1009"
     inkscape:window-x="-8"
     inkscape:window-y="-8"
     inkscape:window-maximized="1"
     inkscape:current-layer="svg1"
     showgrid="true"><inkscape:grid
       id="grid7"
       units="mm"
       originx="0"
       originy="0"
       spacingx="0.99999999"
       spacingy="1.0000001"
       empcolor="#0099e5"
       empopacity="0.30196078"
       color="#0099e5"
       opacity="0.14901961"
       empspacing="5"
       enabled="true"
       visible="true" /></sodipodi:namedview><defs
     id="defs1"><rect
       x="518.835"
       y="372.78225"
       width="653.75992"
       height="76.50382"
       id="rect7" /><rect
       x="528.57185"
       y="342.18072"
       width="446.50411"
       height="136.3159"
       id="rect6" /><rect
       x="556.39142"
       y="333.83485"
       width="427.03041"
       height="48.684249"
       id="rect5" /><linearGradient
       id="linearGradient4"
       inkscape:collect="always"><stop
         style="stop-color:#0f172a;stop-opacity:1;"
         offset="0.53864735"
         id="stop4" /><stop
         style="stop-color:#000000;stop-opacity:1;"
         offset="1"
         id="stop5" /></linearGradient><rect
       x="531.3538"
       y="101.54143"
       width="467.36879"
       height="214.2107"
       id="rect2" /><linearGradient
       inkscape:collect="always"
       xlink:href="#linearGradient4"
       id="linearGradient5"
       x1="-9.9368029"
       y1="64.589219"
       x2="308.77694"
       y2="64.589219"
       gradientUnits="userSpaceOnUse" /></defs><rect
     style="fill:url(#linearGradient5);stroke-width:0.264583"
     id="rect1"
     width="318.71399"
     height="153.4684"
     x="-9.9368029"
     y="-12.14498" /><text
     xml:space="preserve"
     transform="matrix(0.86960643,0,0,0.86960643,-337.22938,-46.612752)"
     id="text1"
     style="font-size:42.6667px;font-family:Serif;-inkscape-font-specification:Serif;text-align:start;writing-mode:lr-tb;direction:ltr;white-space:pre;shape-inside:url(#rect2);display:inline;fill:#ffffff;fill-opacity:1"><tspan
       x="531.35352"
       y="139.41287"
       id="tspan4">ASTRA<tspan
   style="fill:#9333ea"
   id="tspan1">Ï</tspan>S</tspan></text><path
     fill="#000000"
     opacity="1"
     stroke="none"
     d="M 66.362488,98.301931 C 64.93149,92.294683 63.751565,86.358214 60.699969,80.937558 54.578101,94.468139 53.333247,108.97113 51.98995,123.48372 51.223933,122.56431 51.275223,121.48971 51.160942,120.45591 49.897518,109.0272 47.305192,97.975405 41.797027,87.766007 35.562286,76.209867 26.181938,68.877498 13.127351,66.506376 12.34797,66.364809 11.577514,66.174108 10.433773,65.926295 c 1.34997,-0.709243 2.503851,-0.713444 3.580606,-0.917048 12.494929,-2.362714 21.328176,-9.637862 27.472531,-20.484963 4.841031,-8.546222 7.242513,-17.897623 8.952919,-27.477556 0.466782,-2.614419 0.679363,-5.251106 1.019942,-7.876069 0.04253,-0.3274368 -0.01584,-0.6912369 0.640965,-1.0797546 1.260571,14.5986326 2.437579,29.0783116 8.409188,42.8749776 1.312149,-1.487033 1.798969,-3.000696 2.321896,-4.487 1.975286,-5.614389 3.252583,-11.395678 4.233184,-17.260096 1.075173,-6.430037 1.726425,-12.89748 2.071702,-19.4016267 0.02382,-0.4480504 -0.09122,-0.9347475 0.521881,-1.5062284 0.630298,1.3795334 0.514316,2.7998321 0.700513,4.1128871 1.594933,11.247329 4.073057,22.231609 9.740288,32.230547 6.495506,11.460302 15.987705,18.747813 29.261272,20.64032 0.49278,0.07027 1.05059,0.01829 1.50963,0.649739 -2.01078,0.466888 -3.94811,0.893413 -5.87368,1.367709 -10.42332,2.567423 -18.125044,8.800915 -23.71604,17.786032 -5.739095,9.223118 -8.513522,19.474665 -10.21347,30.081655 -0.400467,2.49873 -0.9299,4.97897 -1.029418,7.51868 -0.01361,0.34866 -0.08337,0.66756 -0.794194,1.00109 -0.481703,-8.59709 -1.334151,-16.96683 -2.881,-25.397659 m 2.209906,-35.584814 c -3.393783,-2.523784 -5.559611,-6.059787 -7.819683,-9.8734 -3.206277,5.723398 -6.907097,10.559887 -13.115696,13.042728 6.202226,2.410506 9.862775,7.213183 13.08214,12.945517 3.316044,-5.714221 6.986252,-10.6699 13.534946,-12.815336 -1.98802,-1.199829 -3.934814,-1.836426 -5.681707,-3.299509 z"
     id="path1"
     style="fill:#9333ea;fill-opacity:1;stroke-width:0.346276"
     inkscape:highlight-color="#ffffff" /><g
     inkscape:label="Capa 1"
     inkscape:groupmode="layer"
     id="layer1" /><text
     xml:space="preserve"
     transform="matrix(0.25024146,0,0,0.25024146,9.3027391,-15.03159)"
     id="text6"
     style="font-size:42.6667px;font-family:Serif;-inkscape-font-specification:Serif;text-align:start;writing-mode:lr-tb;direction:ltr;white-space:pre;shape-inside:url(#rect7);display:inline;fill:#9333ea;fill-opacity:1"><tspan
       x="518.83594"
       y="410.65505"
       id="tspan5">Olga, Samuel, Manuel, Elías</tspan></text></svg>
