<?xml version="1.0" encoding="UTF-8" standalone="no"?>
<!-- Created with Inkscape (http://www.inkscape.org/) -->

<svg
   width="512"
   height="512"
   viewBox="0 0 135.46667 135.46667"
   version="1.1"
   id="svg1"
   inkscape:version="1.4.2 (f4327f4, 2025-05-13)"
   sodipodi:docname="base_avatar.svg"
   xmlns:inkscape="http://www.inkscape.org/namespaces/inkscape"
   xmlns:sodipodi="http://sodipodi.sourceforge.net/DTD/sodipodi-0.dtd"
   xmlns="http://www.w3.org/2000/svg"
   xmlns:svg="http://www.w3.org/2000/svg">
  <sodipodi:namedview
     id="namedview1"
     pagecolor="#505050"
     bordercolor="#ffffff"
     borderopacity="1"
     inkscape:showpageshadow="0"
     inkscape:pageopacity="0"
     inkscape:pagecheckerboard="1"
     inkscape:deskcolor="#505050"
     inkscape:document-units="mm"
     inkscape:zoom="1.4142136"
     inkscape:cx="201.52543"
     inkscape:cy="212.48559"
     inkscape:window-width="1920"
     inkscape:window-height="1009"
     inkscape:window-x="-8"
     inkscape:window-y="-8"
     inkscape:window-maximized="1"
     inkscape:current-layer="layer1"
     showgrid="true">
    <inkscape:grid
       id="grid78"
       units="mm"
       originx="0"
       originy="0"
       spacingx="1"
       spacingy="1"
       empcolor="#0099e5"
       empopacity="0.30196078"
       color="#0099e5"
       opacity="0.14901961"
       empspacing="5"
       enabled="true"
       visible="true" />
  </sodipodi:namedview>
  <defs
     id="defs1">
    <clipPath
       clipPathUnits="userSpaceOnUse"
       id="clipPath73">
      <path
         id="path74"
         style="fill:#ff0000;fill-opacity:1;fill-rule:nonzero;stroke:none;stroke-width:0.264583"
         d="m 28.149703,87.179174 v 49.556666 c 1.728603,0.0312 3.457081,0.0697 5.185212,0.12041 2.294022,0.0587 4.588756,0.0499 6.883302,0.0739 3.382478,0.0347 6.76492,0.0815 10.147184,0.13281 4.440057,0.0614 8.880414,0.096 13.320117,0.18294 3.384579,0.0544 6.769177,0.0847 10.153904,0.11834 0.0019,-0.45906 0.457457,-0.91733 1.366324,-0.91726 1.812933,0 3.625527,0.003 5.438426,-0.008 2.159127,-0.0152 4.317,-0.091 6.474026,-0.18139 2.138733,-0.0876 4.279395,-0.12222 6.419763,-0.13022 2.563701,0.0272 5.125159,0.14751 7.687389,0.23151 1.99091,0.0487 3.98155,0.0941 5.97172,0.16123 0.82745,-0.63362 2.09293,-1.03656 3.78737,-0.97152 0.0436,0.002 0.0871,0.003 0.13074,0.005 -0.007,-2.6e-4 -0.0141,-5.2e-4 -0.0212,-0.001 -0.0261,-0.001 -0.0266,-0.0274 -0.003,-0.0289 0.002,-10e-5 0.003,-1.2e-4 0.005,0 0.0585,0.003 0.1173,0.006 0.1757,0.0114 0.0423,0.003 0.0843,0.007 0.12661,0.0103 0.0255,0.003 0.0509,0.006 0.076,0.0109 0.0155,0.003 0.0313,0.004 0.047,0.005 0.0148,0 0.0291,-4e-5 0.0439,-0.001 0.0153,-0.001 0.0308,-0.003 0.046,-0.006 0.01,-0.002 0.0202,-0.003 0.0305,-0.004 V 87.179174 Z m 4.48758,68.677466 c 0.0045,0.0119 0.0094,0.0246 0.01447,0.0377 0.0802,0.10418 0.145563,0.22197 0.237196,0.31574 0.01127,-0.0926 0.02352,-0.19785 0.03927,-0.32039 -0.09696,-0.0109 -0.194011,-0.0219 -0.290942,-0.0331 z m -4.48758,30.02245 v 4.4912 h 12.789916 c -0.994759,-0.87856 -2.114507,-1.79347 -2.201931,-3.04684 -0.0099,-0.14264 -0.01736,-0.28586 -0.02222,-0.42943 -2.143815,-0.16191 -4.295542,-0.34093 -6.310209,-0.53899 -1.420519,-0.13965 -2.837603,-0.31192 -4.255553,-0.47594 z m 83.491547,0.0538 c -0.25914,0.10801 -0.5321,0.22261 -0.82269,0.34675 -1.25931,0.39496 -2.50286,0.8448 -3.77807,1.18494 -2.94228,0.78482 -6.29187,1.38251 -9.294001,1.78542 -1.454941,0.19526 -2.91366,0.36458 -4.375443,0.50074 -0.03469,0.20675 -0.07325,0.4132 -0.112655,0.6196 h 18.382859 z m -30.004888,4.3341 c -0.196707,0.004 -0.394838,0.009 -0.594797,0.0129 0.02461,0.0305 0.04939,0.0607 0.07493,0.0904 h 0.579295 c -0.01849,-0.0345 -0.03835,-0.0692 -0.05943,-0.10335 z" />
    </clipPath>
  </defs>
  <g
     inkscape:label="Capa 1"
     inkscape:groupmode="layer"
     id="layer1">
    <circle
       style="fill:#9333ea;stroke-width:0.243667"
       id="path2"
       r="33.072918"
       cy="55.713467"
       cx="67.73333"
       inkscape:label="cabeza" />
    <ellipse
       style="fill:#9333ea;stroke-width:0.333679"
       id="path79"
       cx="67.736198"
       cy="144.00688"
       rx="43.125767"
       ry="57.062042"
       transform="matrix(0.99995765,-0.00920274,0,1,0,0)"
       inkscape:label="cuerpo" />
  </g>
</svg>
